<?xml version="1.0" encoding="UTF-8"?>
<svg id="Layer_1" xmlns="http://www.w3.org/2000/svg" viewBox="0 0 1080 1080">
  <defs>
    <style>
      .cls-1 {
        fill: #e8eddf;
      }
    </style>
  </defs>
  <path class="cls-1" d="M540,0h0C241.77,0,0,241.77,0,540h0c0,298.23,241.77,540,540,540h0c298.23,0,540-241.77,540-540h0C1080,241.77,838.23,0,540,0ZM229.19,323.03c3.51-10.65,7.55-21.13,11.46-31.65,9.73-26.18,19.82-52.23,29.11-78.56,3.56-10.09,8.38-18.43,18.34-23.07h497.87c9.95,3.42,15.55,10.62,19.35,20.27,14.07,35.73,28.6,71.27,42.93,106.9,1.11,2.77,2.14,5.6,2.84,8.49,1.38,5.66-1.22,9.28-6.6,10.62-2.85.71-5.94.62-8.92.62-197.12.03-394.25.02-591.37.02-2,0-4.01.1-5.99-.12-8.07-.89-11.57-5.76-9.01-13.53ZM840.84,844.59c-.02,22.34-9.86,37.66-27.52,43.49-16.98,5.6-35.07.25-45.06-14.65-5.25-7.83-11.4-10.4-20.53-10.39-138.21.21-276.42.2-414.63.02-8.73-.01-14.8,2.02-19.92,9.88-9.5,14.59-26.93,20.26-43.44,15.76-16.6-4.53-28.07-18.07-29.92-35.41-.32-2.97-.6-5.97-.61-8.96-.03-70.22,0-140.44-.05-210.65,0-8.8.91-17.78,8.88-22.64,5.41-3.3,12.48-5.41,18.82-5.43,91.22-.34,182.45-.23,273.67-.23,90.47,0,180.95,0,271.42,0,20.31,0,28.89,8.41,28.9,28.55.04,70.22.06,140.44-.01,210.65ZM311.18,461.69c.02-10.28,2.01-12.17,12.32-12.22,4.24-.02,8.49-.06,12.73,0,8.56.14,10.72,2.16,10.76,10.61.09,19.47.03,38.94.03,58.41,0,18.72.05,37.44-.02,56.16-.03,9.74-1.61,11.23-11.41,11.31-4.24.03-8.49.03-12.73,0-9.76-.07-11.62-1.92-11.68-11.95-.07-10.98-.02-21.97-.02-32.95,0-26.46-.03-52.92.02-79.38ZM770.88,574.51c-.02,9.38-2.06,11.38-11.42,11.45-4.74.04-9.49.07-14.23-.01-8.05-.14-10.22-2.22-10.24-10.26-.07-22.72-.03-45.44-.03-68.17,0-15.73-.04-31.46.02-47.19.03-8.34,2.37-10.71,10.57-10.86,4.99-.09,9.99-.1,14.98,0,7.72.17,10.3,2.66,10.33,10.42.09,19.23.03,38.45.03,57.68,0,18.98.03,37.95-.01,56.93ZM849.91,413.96c-10.38,18.66-26.41,28.45-47.62,28.3-20.98-.15-36.51-10.32-46.61-28.73-.48-.87-.73-1.93-1.38-2.64-1.25-1.37-2.8-3.64-4.05-3.53-1.43.13-2.88,2.29-3.96,3.82-3.44,4.87-6.13,10.4-10.15,14.7-24.33,26.02-67.71,20.4-84.9-10.76-.6-1.09-.94-2.37-1.69-3.33-1.3-1.67-2.83-3.16-4.27-4.72-1.49,1.5-3.14,2.88-4.46,4.52-5.09,6.37-9.13,13.98-15.28,19.04-25.83,21.28-64.27,12.94-80.03-16.63-1.34-2.51-3.43-4.62-5.18-6.91-1.98,2.32-4.39,4.39-5.87,7-10.4,18.25-26.01,28.19-46.98,28.2-20.95.01-36.7-9.75-46.97-28.11-.61-1.09-1.14-2.22-1.7-3.33-2.51-4.92-4.96-4.93-7.9-.2-3.27,5.27-6.29,10.9-10.49,15.36-24.48,26.01-67.55,20.24-84.74-11.11-.72-1.31-1.4-2.65-2.1-3.97-2.62-4.96-5.16-4.72-7.94-.04-2.67,4.48-5.1,9.24-8.48,13.16-14.66,17.03-36.81,22.54-58.52,14.97-20.48-7.14-33.94-26.45-34.86-50.26-.24-6.24-.16-12.49-.03-18.73.17-8.53,4.17-12.79,12.72-13.56,2.98-.27,5.99-.16,8.99-.16,98.43,0,196.86,0,295.29,0,99.43,0,198.86,0,298.29,0,14.75,0,17.21,2.54,17.26,17.52.05,13.74.61,27.55-6.41,40.15Z"/>
</svg>